<?xml version="1.0" standalone="no"?><svg xmlns="http://www.w3.org/2000/svg" viewBox="0 0 1440 320"><path fill="#90f596" fill-opacity="1" d="M0,192L30,181.3C60,171,120,149,180,144C240,139,300,149,360,133.3C420,117,480,75,540,85.3C600,96,660,160,720,160C780,160,840,96,900,90.7C960,85,1020,139,1080,160C1140,181,1200,171,1260,160C1320,149,1380,139,1410,133.3L1440,128L1440,0L1410,0C1380,0,1320,0,1260,0C1200,0,1140,0,1080,0C1020,0,960,0,900,0C840,0,780,0,720,0C660,0,600,0,540,0C480,0,420,0,360,0C300,0,240,0,180,0C120,0,60,0,30,0L0,0Z"></path></svg>